<mxfile host="app.diagrams.net" modified="2023-05-28T09:08:40.744Z" agent="Mozilla/5.0 (X11; Ubuntu; Linux x86_64; rv:109.0) Gecko/20100101 Firefox/113.0" etag="mcPiYIJufxZhDo2sVzxp" version="21.3.4" type="github">
  <diagram name="Page-1" id="Zaj-8mNydxImLsVuOgwq">
    <mxGraphModel dx="1360" dy="915" grid="1" gridSize="10" guides="1" tooltips="1" connect="1" arrows="1" fold="1" page="1" pageScale="1" pageWidth="827" pageHeight="1169" math="0" shadow="0">
      <root>
        <mxCell id="0" />
        <mxCell id="1" parent="0" />
        <mxCell id="ay9xnxpB-Cgh22EdbN1C-2" value="" style="rounded=1;whiteSpace=wrap;html=1;fillColor=#ffc4ab;strokeColor=#d79b00;" parent="1" vertex="1">
          <mxGeometry x="255" y="120" width="280" height="280" as="geometry" />
        </mxCell>
        <mxCell id="ay9xnxpB-Cgh22EdbN1C-1" value="&lt;h2 style=&quot;font-size: 20px;&quot;&gt;&lt;b style=&quot;font-size: 20px;&quot;&gt;&lt;font style=&quot;font-size: 20px;&quot; face=&quot;Verdana&quot; color=&quot;#e32400&quot;&gt;Light-weight MPC&lt;/font&gt;&lt;/b&gt;&lt;/h2&gt;" style="text;html=1;strokeColor=none;fillColor=none;align=center;verticalAlign=middle;whiteSpace=wrap;rounded=0;fontSize=20;" parent="1" vertex="1">
          <mxGeometry x="288.65000000000003" y="290" width="212.7" height="40" as="geometry" />
        </mxCell>
        <mxCell id="ay9xnxpB-Cgh22EdbN1C-15" value="" style="shape=image;verticalLabelPosition=bottom;labelBackgroundColor=default;verticalAlign=top;aspect=fixed;imageAspect=0;image=data:image/png,iVBORw0KGgoAAAANSUhEUgAAAMwAAADMCAYAAAA/IkzyAAABdWlDQ1BrQ0dDb2xvclNwYWNlRGlzcGxheVAzAAAokXWQvUvDUBTFT6tS0DqIDh0cMolD1NIKdnFoKxRFMFQFq1OafgltfCQpUnETVyn4H1jBWXCwiFRwcXAQRAcR3Zw6KbhoeN6XVNoi3sfl/Ticc7lcwBtQGSv2AijplpFMxKS11Lrke4OHnlOqZrKooiwK/v276/PR9d5PiFlNu3YQ2U9cl84ul3aeAlN//V3Vn8maGv3f1EGNGRbgkYmVbYsJ3iUeMWgp4qrgvMvHgtMunzuelWSc+JZY0gpqhrhJLKc79HwHl4plrbWD2N6f1VeXxRzqUcxhEyYYilBRgQQF4X/8044/ji1yV2BQLo8CLMpESRETssTz0KFhEjJxCEHqkLhz634PrfvJbW3vFZhtcM4v2tpCAzidoZPV29p4BBgaAG7qTDVUR+qh9uZywPsJMJgChu8os2HmwiF3e38M6Hvh/GMM8B0CdpXzryPO7RqFn4Er/QcXKWq8UwZBywAAAGxlWElmTU0AKgAAAAgABAEaAAUAAAABAAAAPgEbAAUAAAABAAAARgEoAAMAAAABAAIAAIdpAAQAAAABAAAATgAAAAAAAACQAAAAAQAAAJAAAAABAAKgAgAEAAAAAQAAAMygAwAEAAAAAQAAAMwAAAAAd/lVnAAAAAlwSFlzAAAWJQAAFiUBSVIk8AAAJTlJREFUeAHtXQt8VNWZP+femQQSAiFgrfjkYR5ERAtV8dEGMxnWrlbdLSqIGiAvW2t/bnV37do2rV27La121+omATGiiJV211pRM0kgvvAFKNKQhxRFK1WWBOWZZObes/8TmThJ5nVn7p0593F/v/nNveee853v+8753+87b0Kcy9GAo4G4NUDjjulENJsGaFe192ZKaD6j6guBnr0bite3D5hNCNH4dQCjoUTeKi/JzcogroKGtv0akqUlane19y5C6d3BzBlhPYyQtaoaeGRmw8ZtwXDnX5sGHMDEoa/OmrKLKKO3E0ouxz9VKbupsM63No6kaYmyc/mlp7vc7i5knhmOAcbYDsjycN8Rsnb2o7594eI4YeE14AAmvF5ILSHSoirvN4lE7oBbc2FoNFS4I9Svnp2/umV3aLgo93DFnqCUXhuLH1idAGF0A2Gs8RDp2TC3Yas/Vhq7v3cAM6IGPHvZjMzpp0+/kTByO6Ukf8TrkEf2Qn6dbz4C4OmIc+2s8FzgcsmvJsDR/wE4axmhjQX1TdsTSG+LJA5gjhfzO4svnjhmfNa3Uf2/C9//xHhKn6nqLQUNzQ/EEzdVcbqrF2yGuzUvyfzeIiprZGTgcTO015KUVVNy2wNm0N93uW+De1IBNyZbi/a4a8YUMqtwle89LemMittV6b2OynSdXvQhH1w0+ieVsMaPuwaem9/WFtCLtlnp2BYw7cs958J1uYNQthBtFFeiBYhKtamg3leK9Gl1zQZdydOmd8KNPCNRWaKmY+wTRtljip82znzI9+eocS380naA6agq80qShIY88ehVrgDNdwCaB/Wilwidrirvv1KJ/jyRtNrTsK28rRPwk8eLH2rq1Z7evClsAZj2hcUZroknLyIS/ScIfLbexQV37rBKBmYV1bW9rzfteOhtv8H7pbHZ9F3EHR9PfL3iMDRyKGFPE6Y2vn2g5flr1hNFL9qi0rE0YNqXL8hzyWoNodItcFVOMrIQAJqNBXU+brVS7pp11SxYiYKsMFK+WLQh9MewtI8qRGksrm/dGSu+Wd9bEjA7q8vOdFF6G8YYbkKPUVaqCkdl6s2F9c11qcqP58PbYm63vAW3UirzjZYXgPMGrE/jwOGjT5z9+MsHosU12ztLAQbTQb6GLuHvYzzhCvynXDZUkkNKwD9r5kMb96SqIsC6vAhBL0lVfpryYawPlmf13v6B789vbOvTlFbQyAn3Dokiz6aSEtfJBe6Fg0AhdM4gX6nHSjDbHJfLtRIP3lTop7PGc42wYOEKoHQM+Pv2SZmZH+DpF6nQidF5mBYwW6o8E8ZTqRIu160omVONVlTc9Cktw1e/sqCuiQPHsGvzwnljJSatgPzCX5h9d4LwTMbJoDB+b5z8ku0VJadgNPs3OVT+EF+wFUKB5bgQqMO/2rHUayiIJ+WNxxgSPS1evaUzHiasdqczfz3zNpWFwZf7PHRCtUIB4wT/sI7PyCAN4PMyPQsrSIt/NCD/vwSfRf/3B9Q3RecxXv5MZWEoU/8Bo/Lj4hUunfHQ5/B3ndULlhrBw1hX5gOp7P1LSgY0/Pf9JbAjKRoCJTYVYFTVXKZdIuy+jpqSM/Qsb4zo/xj0vqknTWNp0besNAfNVC6ZpKhtRJaNLV89qVM6QSYZzV1VnqXrGlo218KfbC8vOVFyZ0yjEpsGKzGFEmkChjonYE7bOMqYiiknKlhQ0B37GWWkF/EOKKp0SCZsMtosVyNNiZ4sGk0Li+0s445xXQneFBhdnGjw7wLX00e/ETwErgnU7QbvJkJ88jrFTOclIq9O1SqhqVyy48I1axVSiPgYk7AbWLjemaJYysKYEDCKOQEjBGpTzARjnxatbH03xbkamp3pAHOkP7ARPr9iqFYc4nppgFsXNMesc5kOMOc2tn2KmcF8sqFzCa4BIMVy5WQ6wPA6goJw3DLBwcLZwzDAVhOwqYlFUwIGTDuA0VTMaYos9zuASZPqh2V7kPW8ylc5Dgt0HoTSAMqnJ10rUI1UhCktDN9wDgNIbUYqxqGdnAYw6Go568I1YkrADBal6rhlyVVpY1OjnekAxlgVa6Suqk47RqPKUhndig1+rj/TWpj8VS0d6C77ayorgZOXBg1YsMHPpTctYDjzMPst/N+5hNPAQSs2+LmWTQ0YSlSfcFXFYYh/ySxr+U0NmMMDfS3YIQaGxrlE0gCjJFskfvTkxdSA+crDL/0f0OIczaBnjdCBFrr8T++qLP2qDqSEI2FqwAxqk7GXhdOqwxCcfXnNtqWXWGa3mGCRmh8wRHo/KIzzL44GsKdBYXZm1psdFd7P94oTh7WkODE/YCg7PSkNOIkN0wB3zWQXfaWzuqzGsExSTNh0S5RD9dNRWZovyfJWs+wkE8q73e4xt+yRQM9HVWY/+ty0gOmuLDuHSdKzRu/Kb7eKbai8jLT1HTryD2beoNyUgMHRdJdhK4knHctiaPU2hDhGAToHBoh31sO+Dw3JwGCipgNMZ6V3GZVJfTLH7BmsU4d8DA0ANO8pgcB8I0856FxWNoVksIslQrM+6vM/odfpAaYCTHdNWTXOfPlv7M9lKr5j1B9bvsb42R6V9JfoNYUGp7Blj8liX8eHtAzbWZVhh57ioGIxtP0kjlK/NviczL9pKl5nlfdmiRJskeqAJZkCFyst28XUgXmJHG1ei5GeRZWlc3C6XBnFDwC8EDUjI5J8AM05AE3Sg9ymAEx3ddkifDXWOmCJVB1MHM7Iq/t7D5ZeuP7VY7Gk6KzwTqUu6kGlLYNbV4pvZ16sNMH3iL8GB/feFHxO9F94wHRWLZiPL8fz0b4eiQrvpBNDA6jM/7u917dw5KGy7yy+eKI7O/tSSlmZRKknmR1PYWEGmF+dWri6eW8yUgsNmM5l8wskt/t1WJYJyQjppBVfAxin2Qy36kHMdO5HpfwKypxbEj5LQLfBdQDz57AyP0hGGwkBZmeF5wKXS8a59CyHMdoFBt4gKjadpgNvJuKPhhNgS9WcrPHSpNfhip0V7r0T5mhAqwYAmN5DrOdU7AlxVGvaYPxEdu+nsiw/AgL5qMz4EJAZuP97InPsZZKuau97uHkDYHqDKOqbh6RPtybCYI40mZ9G7IAFSnAufTTA2zw5LG8pqD2QKEXNFqa70uPBkRPxr6f/fFvXTpjcrXwnEUbUbYEDgbeL17dF3Capq8Z7G6B4b6JCOekcDUTWANv1eJ2voBb7DEaOE/mNdsBUex+DWbk+Msm43qgwj93IfCsWG22lirpDVZQPVUmeKMvSMnwJKuOi4kRyNJCABnAIz1WF9U1/TCApfCoN12vXnz8+b1zu35AqS0MyJ6qjAaE0gM6Fl3DK9dcSYUpTD8TEnNxrHbAkomYnjUgagJW4BEsO5ibCk8ZGPyvnDX3nSlID8EdxNN8edIygg4TuQdtunyqpPTie+zC+fv0SZQqmAGWgi3UMozQX8Sajc2UKcj0DYTOcbvYk9Y/kcPu/jz8MiGu74q79fO2JLLt4F7JzadQAOjz2AgAvEKa+gs6MLceOkT/PftR3RCOZoejtVZ7TJCrNhnswDwV4EcB3gTOwO6SeuG5QJoGBfjJN66zpuC2MJMnlcXHiRBrUAGzI27h5EkfWbShc1fqOnmopbmj5APT470+cbvvCknFyrvtSKklXU8KuwucTVsm5omkAHy6XO4Pdijh3RIs38l1cFqYWo62LqxfsgTd2ykgCznOoBtg+9MA8Qvz+hwpXb0qLNW5fWJzhzjvpckalClSKBeAOhsi5wmqAsc9U/5FTC1e/cijs+zCBcQGmo6rMK0tSU5j0ThA0AGvyHuY7/WLXnvcav/Hcrn5RlLKzuuxMuBB3wmVbAp/dLQpfIvGhquS2woam38TLU1yAwUDiOnytrouXqF3iASidmBJ0z953/evmt7UFRJWbt3lcVP5nuGvL4a6NEZXPdPCFTpY9ezv7Z8RbfjEBs6XKM2E8lT52FD2sOA+qTP3RO73Nvx05w3ZYLMEeupd5pjG3/F/oIPh7wVhLLztMXZxf37wuHiZi+rfjJVgW56s0pEv0B68LqEcLC+ub/9NMYOEC5K9u2Y1FVJczlV0NP5J3GjgX1wCV4m74xwQMqJU7WuUaGGzQX4YKt3hmw0t/M7NOChp8T+HYwyJVZfVmlkNH3s8dnCMZB8GoLllXlbeQSrQjDjrWjoLtgQLsqOmBEq6QsAPPdUSiDXDTcsK9t00YY778eh/vVYx6RbUw6Pkpj5ra6i/5gDwhd7/d2+Qxu1WJVFQFK31PKESdc3zcKFI064dT6u2qXjA7lqARAfPkQiJjWsYNsQhY9f3gklaVLM6va/qR2doqWstkZn3zu31HycVIZ/OhA3Z7LN1FBMzsXK8XXcl8/pLtLkybOIzJXJfzr69dhOdTdQ6q+69AZ8Bau8g8Sk5Krtux1HvqqPCQgIiAgV9bHhLPNrewLPvhnsyfWe+Lf5GcRbTDj3OHH38DQBP3QJ5FRB8UAwbCleEmt0WTKWyjn+/WMWZ8Nu8JyoyW2GrvAJZDCvOXzGzYuM1qsmmVp7vGiz0b6M1a05k9Pq8DR/v7Tzu3se3TcLKEtTCZOVmLENluYBnAqtWrHbB8Xk2wjPcWWJrfh6s0Vg7jvYVZGRkRj+cICxgMVJZbWSlhZMOSaXVJQX1za5h3tgyqxddj1we7l8A93WQ7BVB6K5/EGk7uUYBpry6dCT/tq+EiWzWMqeoPCxua11tVvkTl4hNJDzH1anSC7E6UhhnTwcqcJOeevCQc76MAIxN5abiIlg3DgFVBQ/PPLStfkoLNbWj5TA2Qa3g3e5KkTJUcJ0TwLuZRbfxhgOFjL5gGHhZZppI2Tmb5SsjDA8e4vHyA0rkiaKBolQ+nvMUeo4iQ3JTB6DEr6qjxjpqkOgww50z0/B0g9WVTSqiVaTjnqsIW86PLtSa1Y3x0N98PlT1lJ9klRpaNlHcYYIgk2cYdg0lZVbSy+YWRCnGeI2uA+dl3eLdr5BgWe0Pp5JESDQGm48bSSdgn+YqREaz4DFesRz2m3GlF2YyUie98D8D8yMg8xKHN9lGVjZr2PwQYKcu1CL0DYbvSxBFCH05Q6P9StKa1Rx9q9qLyzoGm+2Gddd3UQzQNon48iYOeivMbfNgMf/g1tGsMGnXlYToFhse2wBP88C2F9b7VFhAlLSLwiajd1ey7GKuzoDvL9mErrJsL6lv+J5JyBy1MR5VnFsAyJ1IkK4VjteHdkMfpFUuiUNEB8CI02JYECeGSwk1/QjmqzMyPAhbO9KCFwelO3xJOAgMY4q5E4crmwb28DCBvL5Kq8u84xaHE9EIz9gmj7OaCuub/jUeW420YCgtjg4uxeyClY110KOr8lS0tcG9xDpCZL/a4P0BnxgsWLumghVFVulaWyZV4HuoEMLMawvLOyF/W1fuc6S9hlZNgICM/x1h4XF/mBHMwJBm+mB+jYV+DtqzmIy8GAVK0sukPLBAowRfjbUM4FICoSsjK2gQP0RGAfSFZ2H7A9yc+W0JI5iIwBbA82n/wyMxEz4cZsigFq1pfwhd4DrY6XQb08bUw1rlwCppfCTRaRyAxJPl86TY1hV45sLGK9gqcC3Pj2Y+/fCBRDQ4BhhOoxRcYyHu47yg7E493w9tP+PBMTk+ci22ctar1E3H4sQ4nip+tE10aGIDGo30DxUV1vmeS5ZVGI7C9ouSUMa7MeyhjS9DvHjVuNDrpfofp+5WYkbwq3XxYNX9sJbyTT1YUTj5G/ophhCrszfCcXrwNszAjic5e1fZXbsJUws6D7/fSyPdmeVZI3waz8GpGPvEFT/rLrbvcWLZxpL9/lp5g4TxGBUxQCGyLuoWfCYhOgeuwbPWDYLgZ/nlHhlX3FBNG/4zq9gXXQybeBj/I1GsirctPJo+4ABPMoKDe97v9vYcKwdCPzdK+gR/ZFuTf+TdGA7s//Mtm1AmBFpixZ/nCNyOk1QQYzsCF6189hv2Ff3pM6S+AkoRv8KE7+RUjFOfQ/EIDfCkzPkxbvwhJ7x1a24aBVzNggqoYbN9gY25FYRfB7dkSDBftX2GqyUejRdNoRH6E0TM+5IYtgkwYMEG1Fa30bYardh4/yQntm75guBD/jH16/DxIIdixMhM4CUCcKf+UTjdK10kD5jhjbPDYM6YKNYmTUbLTKMU5dIdrQKKkfXhIOp/YNKNy1wswg/zlN7RsgHu2yShmNdNlZLfmNE6ChDRw2H9MGF1jTGgcX0GckCAxEukKGJ4XFqKJ48sS8n4M+Z3XOmlgcDMRgWaGUJc6WSfRhpHRHTA4sRcdU2JcEG6fGJzYgwvM1xJm+hGT3WaxMHSiONWD7ReHF1twIsw+CTJVDamHBlgYZgijiVQ3hdJDiaRz0iSsAWH0rVJ5cK1XwpJESKg7YDCAlRchr5QHoz++P+WZ2jtDYfSNCcOGTBbWHTBow4wVpc5IjAZE4cUOfGCEXRx9o/CN0LnugEEvmTCNfsaUDCOU5tCMoAEmzr52CqOHI3CZVLDugOH9yklxpGNi9Mdn6kjOIRVTA1SYDxRVSG9MdhOIoD9gBJq1Cps8IQGdOEkS1AC6lXMTTKp7MpS9OQADz1GYrkUc3mHI4JXupWsRgrDowugbLpkY0/tjli2jwgAGvWQnxeTXiaCLBmqxGBG++Jd0IaYDEUwGzdaBzCgS+rtkVJzBQuzoecYoiZ0AQzRwdUXJFJE2s3dnUI8RguoPGJW8ZwSjCdFkxLBp3gnxY+FEGdQtlK4B3ns6K7xT9Va57oBhEtulN5MJ06OsiB9DmHB6J2HcGsD0/rPijpyCiGj0f1ly0a2dNd7r9cxOd8Coap8w07wxd3rs7IlevseacxmtAUpnG51FAvQnSoQ+1lWz4MX25Z5zE0g/KonugDlKjgo14ZFK7IJRUjsBRmhAWD3D2lzidstbAJyV22/wJtUxoTtgskiWMF2LvFYwIl1kRO1waH6hgS1VngnY57H4ixAh7+A1koqx2fTd7mrv7e0LixMaZNUdMLI09lah1MVYqVD8WJCZHCLNh1i61yWDVDUeu7iucOed/OeOau8VWvPQTchaKAxbhtZSnB+plQkj4+PLN7Vz2fwCI/OwPW1KLjOdDig9U6b0abhpzZ0VpWfHy78uawZ4hZTcGQ8j03mYSybeleG6Ekz9UjzGzM9RLbcslFxuVklQXT3U5XoLwFkd6Ov/YXFj28fRZEmqevMu23Mmev8JCvspzNyYaBml9x3bml/nm5teHqyZO9oDX7PKAbGYC3cYgPiP/T2H7uUbVoYrsYRdsvbq0pmz87ybiUR/KTZYuNh0TleVtzCcApyw5DSA6TC6jnMkx01yqfluM6grP5s8Kafr+PjNKIOiGTDcqnRVe+90U9c2tA/OS47FFKaWWEUKc7NFVuiixXwtush6wtJTj4/fvD6yfaMJMDuXe8+CVXkNQLkHSjLXWhMm3bSlak6W9Qo3fRJlZrEbMAUlJ30cGJszzMtXJVl+cdvSS04I5hQXYDaVlLjgq94lY6oBwGLKtgAKdvI4MrkqKLjzn5wGeJ2AC/PPyVExQWpKJ2RljskPchoTMNwknVyQ+TraKXeLNBs1KICWf4z63/HsZTPMZRm1CJjCuFPOdC/iXfYpzDJNWbFjvT2HtwUzj9itDPfFnUMn34mx8rvQC+YOJjDzP76IU2acPrWckF31ZpYj3bzX8q5kif4g3XykIn9sPvNUaI9ZWAvTXVl2Tg6d9AYsyk/wFbEEWILKxVSZOzcvnCfMzjZBvsz0f12Nl1sXW/Q6qkxtDC2bYRbmc6uSdxe2SrrTakAJCo2G3Ol5eTn86/jDYJjzH78GXrv+/PGU0RXwOqx/4VDZ3zU0t4QKOmRh+GQ0uGAbKZV+ZFWwBAXnjdWOytKhhlww3PmPrYHcnAm8LWuLpd/Yn2JNLSHDtg0bAoyUe/JcKOLi2CozfwzeeSFL8m/NL0lqJeiqXjAb++N9J7W5pi83VQk8MjL3IcCoKu3EphGGnQ04MuO0P1Na1lntXZ52PkzCAO9dxIfmYbhitljBimkym4tWtnaPLJ4hwBQ/1NQLZfxuZAQrP2OBxP18MNbKMuol2/TTpv8atHRZtagXT4bSURmfTDzqGgIMf6OqyopRMSwdQMfKbvLk51M8LC1oUsLBEn8L1sU2rhiGUo4dOHLwyXBKGwaYooaWHThy7/lwEa0ahg6AojFZpM6q8iUrV/vyBTNQSVYlS8dU6Rn5nwvWvn4wHM/DAMMjMIXYzMpg+iClS/AVvTucguwctqOi9ESXmzVBQbbachftl7DuGK8LowBTuMq3EQvhh6YC2KXCYNO/u7CI6Ba7yBtLTj7ekiHLz8MCT4sV11LvGftgXX3zpkgyjQIMj8hUZjsrw+XGWNx/dtZ4ruH3dr54j1jeuNw/wvKeYzc9YNBl1NhLqA7CAmb7p7716GJ+PzSiTe7RcSat7aosu8Em8o4Ss3PZRTnoEduAr0fJqJc2CFACdNTYS6jYYQFzzXqi4Miz+0Ij2uUeLoiLSvSRrqoF37eLzEE5+Z5dkntcG3rEbLnTDlaPvoThlag7t4YFDFfgsWPkIfSY9QaVaat/+CJUIr9CRwDfOMMOs6ZI9zLPtLHZ5BVI+xVblXWIsExhjSGPYW8jAmb2o74jQNyDYVPZJBAdAXdgOfYzHTeWGnLmuyhq5PtzMbf0Jr4NM0ThKeV8MHKUKEfWx8o3ImB4Qr+i/JYw1heLiJXfw9Z8Qx7rerurymO5eXZ8dnpXTdmv+P5ckFOY06/TUZ/Qlfz7wtWvxDw2PSpgZq1q/QRWZk06BBAqT0pOIZK0iS/T5pVMKN4SZIbP1saap5fQyWG7tlo4lWGhWGO48JFhMf1zrlhZdnUgYVRwjSRs2WdGdipU+U5RXUubGWXki+fyJub8GyzKHXzWthll0Jtn3iNcUN80DXRhH6JfMUHAZ2yi8f90dDI2ekvJTJnI3No81l5e8mUzSd5ZWfbNSXnjd0oSBWAcsAyVHWW8KzkmWHj8mBaGR+qo9F4oy/QVfu9coRpgx/B1WjUwQFbMetj3Yegbge4pGvWX48t4F6yKefaRS5UCYQ1UhUzHDJf34skyLsBwQt3VCzYDXvPiIWq3OIPriLA6DwuOVoRbQ5EOffBtkKYUZPwj5oH9AIUc92bb6eA1vXmyF7CNcEm8PAxb0x8tkUrYvdgNMGa3WzQaVn133L2pwCrO5eiGbsPS1oeUnoE/Fq9vO5xqmfkWvi4iLwFQlgIopnIZU60rnh9TsShOwxW3heFbxGLXy3dh1qdqoG/jqIPu2vNwjDdQGni+oG7jR0Yog5fLrFzv+RhovQzzeq6Cl+0siItT0Xzz8b4j5Mt8zDHOJPG1YYLEOqvLvidR6TfBZ+dfiwbYLoDnFaKyN/HR2aEcU9qL1rT2aKHA3awTC9xTXYTNws4+szGNZx7+L4CFs+x2rVr0ozUuXOlG9I4t1ZIubgvDifKJeZI7+0O7rY/QolAtcVFghyhlewCkfaj8PfAPDquMDgAACnTMu3wzKWETCaOT4OZNwWFVp+ATZ4s19Vr0mHBcxr6eX+97UUt6TYDhhPn8Kj5lREsmTlxHA6JpAO7Y7oI6H58KhO9V/FfMcZiRpPwD5H5kFhgZ7jw7GjBAAwcHeyANIAyr/QjIagILZ0MzYAbHG5jTW2ZEGTo0gxpgrxFFPTe/rmkC2hhjAn7/GVjUeLXK2M/wsX4O9XxfMGZC/xh7UQJ+DhjNl2aXjOeAxv9cNP4xu9W5HA3oroG3Dqr7L57bsPVoNMrbK0pOyZQz51CiYjmCNAdtO9zH140O0G2EO5bQmp+EAMMFwdSQF9Aw/Vo0oZx3jgY0auCAQvq/UlTX9r7GdIPRu2ouPZkxNz7mZA6MyFcReB56JEfNwlYZuaqwvumPieSRMGA6qxdcCcaeSiRTDWkOIu54DfGdqGbVAGo4vvyXF9Q3P6ujCBSTh8/E2RwYp+JWiJ2CTDYW1PsSXueVMGBqYQcXV3s7YWXO1EPAwY4ERl6Hf9qKPtWXjzL1jbGKLLvdDGE2Xtikh3JNQAMV+cdor/xUdFYTBgwXDNNAvg2T90BCQg5+Ucg7AEMr9txsDfT6Xww3lYRvJOd2sZcBzBMTysdJZAINsNWYz7XcBIxqG+kfKRAWU2VhEdKH4fzEkXH5MzDyHv6aGVVbqRrYWNDQtj9cvJFh/IAnnHjVBtDYakO5kXqw4jPqxLN7uwaunN/WZoqhiqQsDC/Azirvz/j6igiFyfvRNwEqvkCA+mLtyBGBxmBwV0XpJVR2PQ+IOychR1OUmd4x1ry/99CVoUfiic5+0oB5Z/HFEzNzsrdhOscZGAZC84O9ia+GD1M5fH/r9L+u55ejo8ZTIjHpGVi0bNEV6/AXUwNNH/X1XzW/sc1Ue0YkDRiulvaFJePkPHeh0uvvDNcOiak6DRG4pSEu+VnMvRqnIZkTVSgNsD/s2rP7+m88t6tfKLbiYEYXwMSRj65RsAfyeWD8GRA9QVfCDjHDNQAX/V70ht2OjDRPSzGcuTgyMCVguFw7qi6dnkldz+nVrR2HrpwoyWiA94pSemtBXZOpj0rUPJcsGZ3pmXZWw8a/MDZwIb5TbXrSdWgZpAFKf2Z2sHDNmBYwnHneLf12b5MH59zyLV2dS2AN9AcCiY3XCSaTaV2ykXrsqvJeBfdsjbP6cKRmxHj29/w1s3h9u+kPHTa1hQmtCgUNvqcwRuNBmOl6XkLlsOq9O3fKTCvIZhnA8MKAj/wGI6qpG5VWqFThZFAl8vVw4WYLsxRgBpWv8LlpziWaBrCHc5loPCXCj+UAQym+Zc4loAZYiRU2crdc5WKSPFXA2mJ7lvh0pmyWd6HZFWE5wGBKtO0OMjVLJQRoTO+WWQ8whMwxSwWyG5/o8ncAI1Kh8+OywU+xSDw5vHyhAViYuXx2+xch5ruzlIWZfvr02SgUt/mKwTYcY+PU7EvNLK2lAIO9qxx3TPDaiK1xTe2WWQow8JEdwAgPGOIVnMWo7FkKMJDUAUzU4k7/S7jMU/nSjPRzkhgHlgGM0+BPrAKkI5WbyqZ1yywDmBmnTjvHafCno/prz9PM02QsAxjMVHYOPNVed9OSAmfeXMpPTktL5klmahnAYPkr30vXucygAUpzz5rgMWV5WQYwqCd2sjAHsTR7G2Ruwkp5vjmi6S7sZWfKdkzcpyiLXCJbqjwTKGP5WHEpMpvDeMNe0h2o9D9RCNtGVRXs0zwqSydg+6jJlKlZjEhuiTC3Sqgf7uZnOO33oESVTwZU9u6sVa2fhBLrrikrR/oGM7XhsDk4B8zdoXKY4d48NSyKNruqy0oplVqiRBHqFazClkNM9cxtaPlML8aw9dQtKMz79aKXAjr9WLY83mzLli3iklHzuGOM9TG/f4meYOGVm+/Igj2/NqSgouuVRaZr4gmmO8rEIoAxT/tFJeRXhas3delV60LpML9aheUNn4aGCXqvqir793g3oxdJBksABq4Ijm0T/4Ir9lH/UfIfRnFauLp5LyP0e0bRT5out66MNagDAzMLG3x3JU0vDQRM34bh/fnn5HnRMBa/xa8StqSwzrfW6HLurvH+CefuXG50PvHTZ/vQKfEAYf0PmtGqhMppesBwYVBBdqCCnBUqmHD3jLyaX990EfgyfE/hnVWXnOSSstqRV3rXnjDSjo/Efbs/2P2YGTceD1eHLNGt7O8bKHNlZvwU3a+LhNzVH34IUxXuKhkOFl7IMxte+ltXZdn30E29JlyhGx6Gc18UVf110cqWJsPzSnEGlrAwQZ3xYzfck9zfIowuRdglorhp6L1qxI71nKeUXjjp+mno4IpUZAoZ+a6Wj6tMubeooQUW35qXpQATWkTdyzzTmJvehO2jb0Tr5ozQd6m8R0U6FOjvzy9ubPs4lfnyvFLhmmEAtgcy/rfSP/BAOmRMtU4tC5gQRdLOqgUlVCJLKSP/CLctpUf+YRXondjG1rCesRA5w97CNbvBCNcMIOnGLqP39fYefsRMR+6FVZKGQDsAZkgdncsuyiHu7GvQzimH1bl46IVBN2iw7Nnb11+Y7mPp9Ow1g0XZjNMSVqxr8D1di+OvDVKdsGRtBZjQUuDHmcsyK5ckciN62E4NfafXPVPYooKVvif0opconc5lZVMkN21HeyY3IRq804LQpzHY+Muilb7NCdGwSCLbAiZYfrVo5Cyu9FxKZGkpwq4GeMYG3yX3z17D2fPzkqOhX2o+QROiPqyRYj+gsgZTeX5t1OwEjfykPbrtARNaAq9df/74iTm516KtsxRtnaQqu8ICFxbVt74aSj/d9101Xn6Y7mVx8HEA1uRBv6rcP3JmdBxpLR3FAUyE4u2oLM2XJLkcr9HLRk+OEC1sML7Kvyuo910X9mUaA7dXlJwyVs74M1yzCeHY4G0uDBjd13+Urpr9qO9IuDh2D3MAE6MG1MKPubbSUybJUjksDz/lbEyMJP0K6S8sqmt7P0a8tLzurPYulyhdNSLztwhTV3zU5V8/v60tMOKd8xiiAQcwIcqIdftWeUnu2Ez3dZ/3stHzw8Zn6i/y65v/New7QQK7qhf8Gi7nYsxsfg2TD35bUN/snKkTZ9k4gIlTUSOjdVd4ighcNkbJDeiiPom/52MTgd7+OcXr2w6PjO88W0MDDmCSLEc+W/rsSWUXUCZNDwTIM8UPNfUmSdJJ7mjA0YCjAUcDjgYcDdhOA/8P++1GhdAU+g0AAAAASUVORK5CYII=;rotation=25;" parent="1" vertex="1">
          <mxGeometry x="340" y="151.13" width="120" height="120" as="geometry" />
        </mxCell>
        <mxCell id="ay9xnxpB-Cgh22EdbN1C-19" value="" style="endArrow=none;html=1;rounded=0;startArrow=classic;startFill=1;strokeWidth=3;strokeColor=#e32400;endSize=6;startSize=6;" parent="1" edge="1">
          <mxGeometry width="50" height="50" relative="1" as="geometry">
            <mxPoint x="330" y="190" as="sourcePoint" />
            <mxPoint x="280" y="190" as="targetPoint" />
          </mxGeometry>
        </mxCell>
        <mxCell id="ay9xnxpB-Cgh22EdbN1C-20" value="" style="endArrow=none;html=1;rounded=0;startArrow=classic;startFill=1;strokeWidth=3;strokeColor=#e32400;endSize=6;startSize=6;exitX=0.003;exitY=0.814;exitDx=0;exitDy=0;exitPerimeter=0;entryX=1;entryY=0.25;entryDx=0;entryDy=0;" parent="1" source="ay9xnxpB-Cgh22EdbN1C-15" target="ay9xnxpB-Cgh22EdbN1C-15" edge="1">
          <mxGeometry width="50" height="50" relative="1" as="geometry">
            <mxPoint x="336" y="233" as="sourcePoint" />
            <mxPoint x="480" y="210" as="targetPoint" />
            <Array as="points">
              <mxPoint x="280" y="220" />
              <mxPoint x="280" y="353" />
              <mxPoint x="510" y="353" />
              <mxPoint x="510" y="210" />
            </Array>
          </mxGeometry>
        </mxCell>
        <mxCell id="ay9xnxpB-Cgh22EdbN1C-21" value="" style="shape=image;verticalLabelPosition=bottom;labelBackgroundColor=default;verticalAlign=top;aspect=fixed;imageAspect=0;image=data:image/png,iVBORw0KGgoAAAANSUhEUgAAAOIAAACuCAYAAAAritHAAAABdWlDQ1BrQ0dDb2xvclNwYWNlRGlzcGxheVAzAAAokXWQvUvDUBTFT6tS0DqIDh0cMolD1NIKdnFoKxRFMFQFq1OafgltfCQpUnETVyn4H1jBWXCwiFRwcXAQRAcR3Zw6KbhoeN6XVNoi3sfl/Ticc7lcwBtQGSv2AijplpFMxKS11Lrke4OHnlOqZrKooiwK/v276/PR9d5PiFlNu3YQ2U9cl84ul3aeAlN//V3Vn8maGv3f1EGNGRbgkYmVbYsJ3iUeMWgp4qrgvMvHgtMunzuelWSc+JZY0gpqhrhJLKc79HwHl4plrbWD2N6f1VeXxRzqUcxhEyYYilBRgQQF4X/8044/ji1yV2BQLo8CLMpESRETssTz0KFhEjJxCEHqkLhz634PrfvJbW3vFZhtcM4v2tpCAzidoZPV29p4BBgaAG7qTDVUR+qh9uZywPsJMJgChu8os2HmwiF3e38M6Hvh/GMM8B0CdpXzryPO7RqFn4Er/QcXKWq8UwZBywAAAGxlWElmTU0AKgAAAAgABAEaAAUAAAABAAAAPgEbAAUAAAABAAAARgEoAAMAAAABAAIAAIdpAAQAAAABAAAATgAAAAAAAACQAAAAAQAAAJAAAAABAAKgAgAEAAAAAQAAAOKgAwAEAAAAAQAAAK4AAAAA+4y73QAAAAlwSFlzAAAWJQAAFiUBSVIk8AAACyFJREFUeAHt3b/PHEcZwPHdc4SLGCmhDZKNRBcJpaBBCbYrFCuxC8SbOiECIVHwn6RJEyCRaJHt0KEUkLyJSY0oqCiI8zdYoXrfzT0vfl7f3s3tzu7OzM4883Uz793t7Y/vzMf32r733DT8ogAFVi/Qrn4GnAAFMizw9cnNe13TvvKkad97+f7pk9inCMTYhdl/cQW+Orn57qZp/9i0bdt13T+2GO/ExgjE4pYJJxyzwC5CPU4KjEDU2ozVF3Ah1CixMQJRSzNWXWAIoYaJiRGIWpmx2gI+CDVOLIxA1MKMVRaYglADxcAIRK3LWF2BOQg1UmiMQNSyjFUVWIJQQ4XECEStylhNgRAINVYojEDUooxVFAiJUIOFwAhErclovkAMhBptKUYgaklG0wViItRwSzACUSsymi2QAqHGm4sRiFqQ0WSBlAg14ByMQNR6jOYKrIFQI3ZN8+WTrnnd96c2gKjlGE0VWBOhhpyCEYhajdFMgRwQakxfjEDUYowmCnz11s1fbrr2Q/mh3lwuyAdjNiebSzTOo9wCOSLUmmMYgailGIsukDNCDTuEEYhaibHYAiUg1LjHMAJRCzEWWaAkhBrYhRGIWoexuAIlItTI+xg3+gAjBUoqcPFPFJn97eiUfttXwFevtc0n//rZj56X5wFxSj22zaLA47du/Uo/dzSLE5p5EoLxhRdefFee/tzMffA0CqxSQBC2XfP7nP6dcHaIrvtfd949kufziji7Ik9MXUD+TGgLYXvvxsMv/ikd+cua1KuJ480qUPJfzBxc8MUrYXvv+sPTv+ljQNQSjNkWsI5QwgMx2+XHiUmBGhDKdQJRKvArywK1IJT4QMxyCXJSNSEEIus9ywK1IQRilsuw7pOqEaHMOP+gX/e6z+rqzSHszu9ef/jo7z6R+TOiTyW2iV7AJMIHfgglLhCjLzEOMFagdoTSB4hjq4THoxYA4f/zAjHqMmPnQwVA+KwOEJ+14KuEBUDYjw3Efg9uJSgAwsPIQDxswj0RC4DQHReI7i7cG6EACI9HBeLxNjwSsAAIh2MCcbgPjwYoAMLxiEAcb8QWCwqA0C8eEP06sdWMAiD0jwZE/1ZsOaEACCfE2m4KxGm92NqjAAg9Iu1tAsS9INxcVgCE8/oBcV43nuUoAEJHFM+7gOgZis2GC4BwuM/Yo0AcK8TjowVAOJpodAMgjiZig6ECIByq4/8YEP1bseVegf/+4tY7V9rmIzP/IYx8xsyEj7fYy7HoJhAX5av3ySAMO/dADNuzir2BMPw083GK4Zua3uMFwk3z4fa9IOX/Ji7/K9OK347uLpTyY+5eDV9HLbCDsPz/VzMjhDJpQIy6dO3sHIRx5xKIcfua2DsI408jEOM3LvoIIEwzfUBM07nIo4Aw3bQBMV3roo4EwrTTBcS0vYs4GgjTTxMQ0zfP+oggXGd6gLhO9yyPCsL1piXpP8x+dvs27+RZb64HjwzCwTzRH0zyivifOz+8+p1r3/9z03R3uq797Y0Hp9u3SPErlwLWfpTpvOnevHH/i09z6etzHtEhCsKr1176y/atiXcuTqjb/mqa31y///kffE6QbeIW4JUwbl/fvUeFeIBQzwqMWmLVEYSr5u8dPBrEowj18GDUEquMIFwl+9GDRoE4ilBPB4xaIukIwqS5vQ4WHKI3Qj09MGqJJCMIk2SefJCgECcj1NMFo5aIOoIwat5FOw8GcTZCPX0waokoIwijZA220yAQFyPUywGjlgg6gjBozig7WwwxGEK9PDBqiSAjCINkjL6TRRCDI9TLBaOWWDSCcFG+pE+e/V7TaAjl8tvtr6b54PHJrV8nrWHoYNYQytvW1vrw3xTLYtYrYlSEu1fNK+NuDe+vLSIs7b2j3pP1dMPJEJMh1CsBo5bwGkHolSm7jSZBTI5Qc4FRSwyOIBzMk/WD3hBXQ6j5wKglnCMInVmKudML4uoINScYtURvBGEvR5E3RiFmg1DzglFLXIwg7OUo9sYgxOwQamYwglDXgpHxKMRsEWr4yjHySqgLwcbohJg9Qm1fKUYQ6gKwMx5ALAahzkFlGEGoE29r7EEsDqHORSUYQagTbm+8hFgsQp0T4xi/Prn9dtN2H23fiDv7/cGaavVx+5+ElviRhzG7XU7q1e++9KfLjzyMecRY+zb8RnF5JTSE8Jvzs+YN6+8dnbrMLyE2XfPjqU/ObnuDGM19O3rWvHnj488/y27trHxClxC7s/O3m657svL5LD+8IYzy7eiVTbP9VHRD346C0LnGL/+MKI8+/vlPX22vbD7Zfot6zbl1SXcW/mdG/kxY0mJbfq49iLI7MC6PunQPIFxasLznH0CUSwDjehMJwvXar3lkJ0Q5ITCmnxYQpm+eyxGPQpQTBGO6aQJhutY5HmkQopwwGONPGwjjN879CKMQ5QLAGG8aQRivbUl79oIoFwTG8NMKwvBNS92jN0S5QDCGm2YQhmtpYU+TIMoFg3H5tINweUNre7h8i5vvhV3/+NGX27fDvc7b4XyL9bczhvAbfoqiP79zb01+RdQD8cqoJfxHgwjv8lMU/vM/tOVsiLJTMA6l7T8Gwn4PbvULLIIouwJjP6jrFghdVbhvt8BiiLIzMO4m7X8Nwn4PbrkLBIEouwbjYWAQHjbhHneBYBBl92B8FhmEz1rw1XiBoBDlcGBsGhCOLzy26BcIDlF2XzNGEPYXGLf8CkSBKIeuESMI/RYdWx0WiAZRDlUTRhAeLi7u8S8QFaKcRg0YQei/4NjSXSA6RDmsZYwgdC8s7p1WIAlEOSVzGLvm/a5pzjab5ndGPndUPoGbD/+d5ifY1skgmsMYbAoy2FHXyU9R8AbuFaciKUQwrjjTxw4NwmNlkt6fHKJcnalvU5NOV+CDgTBw0Pm7WwWinC4Y509akGeCMEjGUDtZDaJcABhDTePE/YBwYrD4m68KUS4PjPEnuXcEQcjfjvaS5HBjdYgSAYyJlgIIE4WefpgsIMppg3H65E16Bggn5Uq9cTYQ5cLBGGn6QRgpbLjdZgVRLguM4Sb3Yk8gDBw0zu6ygyiXCcZAkw3CQCHj7yZLiHLZYFw4+SBcGDDt07OFKBnAOHMxgHBmuPWeljVEyQLGiYsDhBOD5bF59hAlExg9FwsIPUPlt1kRECUbGEcWDwhHAuX9cDEQJSMYjywmEB4JU87dRUGUrGDcW1wg3AtS5s3iIEpmMD5dbCAsU53jrIuEKNdRPUYQOpZzuXcVC7FqjCAsV9yRMy8aYpUYQXhkKZd9d/EQq8IIwrK1DZy9CYhVYAThwDIu/yEzEE1jBGH50kauwBREkxhBOLKEbTxsDqIpjCC0oczjKkxCNIERhB7L184mZiEWjRGEdoR5XolpiEViBKHn0rW1mXmIRWEEoS1dE66mCohFYAThhGVrb9NqIGaNEYT2ZE28oqogZokRhBOXrM3Nq4OYFUYQ2lQ146qqhJgFRhDOWK52n1ItxFUxgtCuqJlXVjXEVTCCcOZStf206iEmxQhC25oWXB0Qn8aL/hk4IFywTO0/FYg7cxwNIwh3KvOlqwAQ96oExwjCvcLcdBUAoqNKMIwgdNTlLlcBILqqbO9bjBGER8pyt6sAEF1Vnt43GyMIB6rykKsAEF1Vdu6bjBGEO/X40rcAED1KeWMEoUdNNnEVAKKriuO+UYwgdFTjLt8CQPQttd3uKEYQTqjIpq4CQHRVGbjvACMIB2rxkG8BIPqW2tlOMDbPbf7ads3mrGvv/uDB6enOw3xJAQqkKvD4jdde/PfJT76X6ngchwIUoAAFIhf4FsKRvqLGIA9JAAAAAElFTkSuQmCC;" parent="1" vertex="1">
          <mxGeometry x="383.41" y="199.13" width="31.17" height="24" as="geometry" />
        </mxCell>
        <mxCell id="ay9xnxpB-Cgh22EdbN1C-22" value="" style="shape=image;verticalLabelPosition=bottom;labelBackgroundColor=default;verticalAlign=top;aspect=fixed;imageAspect=0;image=data:image/png,iVBORw0KGgoAAAANSUhEUgAAALgAAAA2CAYAAAB0iVNvAAABdWlDQ1BrQ0dDb2xvclNwYWNlRGlzcGxheVAzAAAokXWQvUvDUBTFT6tS0DqIDh0cMolD1NIKdnFoKxRFMFQFq1OafgltfCQpUnETVyn4H1jBWXCwiFRwcXAQRAcR3Zw6KbhoeN6XVNoi3sfl/Ticc7lcwBtQGSv2AijplpFMxKS11Lrke4OHnlOqZrKooiwK/v276/PR9d5PiFlNu3YQ2U9cl84ul3aeAlN//V3Vn8maGv3f1EGNGRbgkYmVbYsJ3iUeMWgp4qrgvMvHgtMunzuelWSc+JZY0gpqhrhJLKc79HwHl4plrbWD2N6f1VeXxRzqUcxhEyYYilBRgQQF4X/8044/ji1yV2BQLo8CLMpESRETssTz0KFhEjJxCEHqkLhz634PrfvJbW3vFZhtcM4v2tpCAzidoZPV29p4BBgaAG7qTDVUR+qh9uZywPsJMJgChu8os2HmwiF3e38M6Hvh/GMM8B0CdpXzryPO7RqFn4Er/QcXKWq8UwZBywAAAGxlWElmTU0AKgAAAAgABAEaAAUAAAABAAAAPgEbAAUAAAABAAAARgEoAAMAAAABAAIAAIdpAAQAAAABAAAATgAAAAAAAACQAAAAAQAAAJAAAAABAAKgAgAEAAAAAQAAALigAwAEAAAAAQAAADYAAAAAYsH03AAAAAlwSFlzAAAWJQAAFiUBSVIk8AAADA5JREFUeAHtXQtwVNUZPufezUNIMFBESRilvLJhpSDBIiEha6WlNCTZVAFBpbZTRu1DZ6hUaGuHUXDGomKZ2hmqxTCOoIAmbJCkgLjZCAgSQWgSdnkWaAqYlEACee3e0++s3bgbsrt3X8nu5tyZ3fs4/3l957v//c9/zj2XELEJBGIYARrDdQt71Wr0+iRNkm000ciphLJhlNBhCvl6TxhJQgESCcWPkUSEJTDCGK51APQOvsevHb9mQuhX2DcolDQwZv+KUKneZm87PcF44BKuiy0IBATBVYBXM2vaEJoQnylRNlmSaDpoOgbEHQvS3qEiesAiyOc6Iew0boDTlDALEjqCG+nIkRKzdR4h9oAT7kcRBcG7NfZmQuRJhdlTFCLpJSrdC62bSSkd2U2sj09ZK2P0KMhfTRRaxUinWWvcW9/HhYrI7AXB0SyWOdkTiUaaCdPgfspYDqF0UES2lrdCMXIK2t3MFGZqa7VVTNy577I38f4S1i8JzrX0BIM+RybEwCgxAIS7YqvBQXNGP0e9tqNe28eVmo7EVv3U16Y/EZweL8jVSzJ5DD29QtjPQ9TDFO2S7ALs+c1MoZu0RtOhaK+NP+WPeYLXFWWPo4pmETqIj8H0uNMfcFTI2hlj59DhPANPySXcNJdhs1/Cj++bZIW0MQk/x561oRyUUSUefwnOPZXJYKpItxGJDIWT5TbkOQzpjUR6o1DeASrK4KcIO4HybGLMthF2O++4xvQWkwQ/lJkZl5yW/CCRya9QwenBtyAe+YRYQeBqEPcLhVArtXeesJ9qOqOrqeHuvrBstbNyhksJZJQkyWORwSTHjzr2t4YiQ9yc+3BTrau/Km2+32RqC0WakZZGTBH8WMHU2+PlxCcA8pMg4/BAwQaJW6BBq6Bp9+D4gO0qPawzmVoCTS/E8ag1L/vbSpw0hVJpBtyHuSirDto+8LZk7Ao8MhuYXVqXXmY6HuLy9mlygYPSp8V2z9ySr9dCWy+DF2EBiB3vHqrmjGtoup8yUmFnyp6LV6WD0Gg2NTEjQaau6LvfktiAHEKUB+AznxOMWxNafTcGq1ZnlJp3RkLdgi1DVBP8eEHOd6gk/R666yE0rOQPGNDMHdB8H8PeLemwtxljadSwNk9/txzH8oEHyE7u8xcbjiPwOQpPzOqW883vT6mu7vQH20iSjUqC1xmyM2Uq/xGtkO/XoxnqCYSuUhRS3NTR9sF95QeuRVJjhKMsxwump1KqmQ+t/gjqnul3Hoydh0Z/9T9N0rpotNOjiuCwPUexeHkVTIn5/hAbvD4LLQYbU9mgLTOf8buRYyQC9yhJTLMQ+vkn/poxwLAeHdKXbCcb3wxnxzrUUEcFwWFjD2Ua9jwKyzuPqm1shz3JyNr3t1V+tAIGaqjBi9b0gIW0wJA7C+bLk7jx81APjHmp3KDRIbny2vmWt6PBdIlognN3X9KIgUskSn8Hja1u+JyxGwql79gV+1rdtqpalc3Wb8W+nK0fkRjPFkOjPwET5na1QMBGPw3X6TJtSeUWtXH6Qi5iCW4x5DyAfuNfoLG1aoCBtm7GI/SN6x3stcnlVXz6qdj8QGDH7DEJoxPTFqFf8yzIPk5tVJB8L2H2JemlVQfVxulNuYgjuGXOtDSiSXgVj8/5KoG4CmKv7WzteF33j/3/VRlHiHlAYAU3XwpzC4H/Ujw1p3kQc78M7YILmzrt9uW6sk/PuQf27VnEEHwFgH3YoH+aUvYitDZ/WcD7xk0RRte0XG9ePWV39VXvwiI0EAT4U5QS6UXVRCesFR3YVZ3WxtWR0hGNCII7evdEsx6FUTGsjpkUjBQriu15MQc6ENr6H8diyJ0NpQOiq3MzQp9bMHT2lNZY+Yn/uYU2Rp8SfAW09sJC/RIisRfQm7/FV9XwJCy3d9Lfjv/I9E9fsiI89AhYDHoDNPRLsNEzVKb+bru99Td9OYjWZwTnWlsm8gYQGyNt3jcQ+yw0wjNao9noXVKEhhuBT/R6TeqtCjwudAWIPtRnfow14ZH7rLbU/HefsmEQ6BOCHy+a8TPKpLXoyAz0VifHcDohrzRe7FiZtX8/7DuxRQoChw36FMzl/QPm//xazdgE2rKirY0unlhuutCbdehVgnNQBlL2N2jtub4qCUD2MLvtF/1hzrIvLCI5/Jgha3Q8iYOyoj/yWU7GrkGbL+lNbd5rBMfEqOlUlt9Fhnd5AwLEbsGEkaXaEtM6yHH3k9iiAIE6Q86DMpVeh/Ia4au4vanNe4Pg1FKkfw4ZrUTFvQ4Jo/f9McbTf55RajrrCyQRHnkIONaJGcxegMnyNErnta0xdnHFTpTFGaVVH4SzJmEl+Gezpw4anJC4AY8v9L49b0Jre8YmGkOsBv0k2OboVNLJvsqPtn+r2dbyzJSy6hu+ZAMJDxvBa/Kn6zSy5kOQ28ewL/vCTuwLMko+tQZSAREnMhHg3pa0FLKMUT5JzvsEOe43tynKAp3RfNhZm7rCGVkyJXNhrvIpviNAVP5EaITNWgPtvwsrgJWgf4ZVwbxvYSG4pUD/MF6ifcurlwS+PxR2je1Ew/JIGfXyDpUIDQQBEHWCLNFiX9ocmrwDL1g8B+LWyZL0CuTv9pofOqwg/5rGS+0ve/OwhZrgFKNeq6C1l3stHH/rnJHH00sry73LidBYQIBr8+EpbDkUHtfmcSGtE2O1NhszjN9uPtFTuiEj+KH8zAHJctI7IPePe8rIeQ16u8rWQefpdpguOq+Jff9AwJKfey+WydiIQaIxoawxOFVvU2iuzmg62T1dv95j7B7Zec5fixokJ5t9kRtOvz/XN9HvCXI7ketf+/Syys87m+g9IGRxKGsO3qVqJLaLe3G6pxu0Bq/Nz5ksa2QjEkrrnnjXOWb+YYWcxRnbzBu7romDfo2ApXDGfLwwzsc6QrLGCwcTN85fYfb+0hXYoAjOZ5mhM7DFe2eSnMJSDEUg9zHXjMWxQKDOoB+Jtb5q0Vn0OdFOHVpMsbV3jhq/Y9+/nPIBmyi4AxeB3Eav5CbMbKc3pgpyO+EWe1cEmJ3cETpy85TxTIiLX+yaR0AEtxblLoXdUwxya1wTcz3mdlanteH7GSUHG12vi2OBgBMBSVbynMeh2uOFGTcnh78Ex7B77mu4U/6EnnDP5g2YDf/2cthCPxX+7VA1W2ymA5ehz5FOf2sOUmr3TZvWZfJ41MDdE3aMTA0mxbj+SPewb87xyhJlj6aXVH74zTVxJBDwiECqx5BAA6B4hw6RhyP6aZ6EKoI7VmtNYe9Bc7upf7cy8MkzjM2Bvb3P7bo4EQh4QgAvfHoKCuZ6p6zpStcnwaG5E5MHk61Q/V7sJXah0277oa5sb00wBRNx+xkCDF+X69nQDQqIDok0OBPoYrrzguuej06mprAyb+SGxV3XrrAsQW5X5MSxGgQoUcLgOmYX7ik1NTnz90hwjE4mD9IklcOkmekUvnnPPrO1dmRP2Gbmy3mJTSDgFwIYXt/hVwQ1wozsdBXrkeB8yJNKmgrY3DNchV2PMftrT+v1KzPFYjuuqIhjfxAYb6zcDR45OoP+xPMmqyjKetfwmwjOzZK4FLIdmjvLVdD1GIWqqL9C8ybuPIoPlYpNIBAwAnAps1UBx+4WEebybq2xaq/rZTeCOzqUctI2GP65rkLux8xoszYURuNa0e71EGeRgIC2xLyeEzPYsiCNZpg8T3VPp4vgNTpdPDqU/A0cbzb3lmvnWh4SAzjdYRTnwSBwvV1ZiPhBeOBYm8KUuT1Nl3U4abife9CdSVthcxd4LChjG4+UVi4S30j3iJAICAKBL3+QNeyWgXF4AcbP0U0sLGRTyDzY87t6yv5rDZ5K4hDYNbx5syDbKsh9MyriSugQ4J8eP9n27yx8XgY2OV/E0/cGs6QUa1TqPJGbp9DlZnesD52Q9h5MlG5vwDMjN0uiYTV/35AIiWhAgGvzhAFxj4Oc+fhNxrwn5wdx+Yd3rWBtBT6f+Oa4EnOdr/p0EZwL8vkmsMPfBskf5edIrBwvBRuEzc3REFsfIUCP5mWnoAOpUS7faPJX0boR/P8VoFZD7huYETgWr5flC29JHzWryDa8CHCTJbw5iNQFAgIBgYBAQCAgEBAIeELgf8YeZpQJ9vt6AAAAAElFTkSuQmCC;" parent="1" vertex="1">
          <mxGeometry x="341.07" y="138" width="115.85" height="34" as="geometry" />
        </mxCell>
        <mxCell id="ay9xnxpB-Cgh22EdbN1C-24" value="" style="shape=image;verticalLabelPosition=bottom;labelBackgroundColor=default;verticalAlign=top;aspect=fixed;imageAspect=0;image=data:image/png,iVBORw0KGgoAAAANSUhEUgAAALYAAAA2CAYAAABqQGPcAAABdWlDQ1BrQ0dDb2xvclNwYWNlRGlzcGxheVAzAAAokXWQvUvDUBTFT6tS0DqIDh0cMolD1NIKdnFoKxRFMFQFq1OafgltfCQpUnETVyn4H1jBWXCwiFRwcXAQRAcR3Zw6KbhoeN6XVNoi3sfl/Ticc7lcwBtQGSv2AijplpFMxKS11Lrke4OHnlOqZrKooiwK/v276/PR9d5PiFlNu3YQ2U9cl84ul3aeAlN//V3Vn8maGv3f1EGNGRbgkYmVbYsJ3iUeMWgp4qrgvMvHgtMunzuelWSc+JZY0gpqhrhJLKc79HwHl4plrbWD2N6f1VeXxRzqUcxhEyYYilBRgQQF4X/8044/ji1yV2BQLo8CLMpESRETssTz0KFhEjJxCEHqkLhz634PrfvJbW3vFZhtcM4v2tpCAzidoZPV29p4BBgaAG7qTDVUR+qh9uZywPsJMJgChu8os2HmwiF3e38M6Hvh/GMM8B0CdpXzryPO7RqFn4Er/QcXKWq8UwZBywAAAGxlWElmTU0AKgAAAAgABAEaAAUAAAABAAAAPgEbAAUAAAABAAAARgEoAAMAAAABAAIAAIdpAAQAAAABAAAATgAAAAAAAACQAAAAAQAAAJAAAAABAAKgAgAEAAAAAQAAALagAwAEAAAAAQAAADYAAAAAI+UMSgAAAAlwSFlzAAAWJQAAFiUBSVIk8AAADKNJREFUeAHtXQtwVNUZPufc3U3CMwoUn0MtNCSkvIQpA4Sw0lAGMC9rraWDQyn4pp2hatWqZJjxUXWoHSgFitWWRqyMzSYIiDi6CTG1lEARAiEKrQ/AASuPhEiS3fv3OxuubJK9dzf7SHaXc2fg3nvOf8495zvf/uc//3mEMXUpBBQCCgGFQPwgsLfImV5fMG1MoBKJQIGBwkoYE+/PnjRgd/6EPoHiVZhCoCcRkFzsw2i70LSqQ4W5Uzp/m3cO8H+vK3COsAtaTJzPYoyyOOMOXzzRacbZbiJe0czYX8e73Gf806lnhUAsEahzOvvZ0mk759xHaCJ2nhMryih3v218NyCx6+Y4r7I72CqQ+RaG1IZwoDsRNSL86eNn+HM3ud2eQDIqTCEQLQSkxTDA1m8bYzy3Q57EWnRdvy2zoqpChnchbUOhM48E/Q3a+coOCYO8EGPvtbR68sdsqT4dRFRFKwTCQqBm8uS0QVc53gA3ZwTKAJrbw8mTk1Fe/c8ONvbBgukzmaDN3SW1/Ah+IVNT7bYd0qAP9FEVphCIBAGpqQcNdVSYkfpi3qUg9S75/DWxD96c+21NY38HRVPDLgBncmT5ctjpVUKFQAAE6gum9u+v9XsTVnFegOj2IKJXNrrcC/EC48GP2Jqdr8GvoV+7VPj/wyIvPFzgvD38HFRKhcAlBKQFwIV9B0g97VJo5yfa9G9X5R0ljOlGjE9jNxTk5gZR8YZ8SHcu6PGQBJWQQsACgcP5zsF9Gb0DZTnJTIwYlR07zefdxpjXX8ZHbBJCqvDoXZyPOlzszIlehiqnyw2Bg7OmXc1tzA2v3HjzulNF4ydNPwrkjfMRm3GCnzrKl67PjXKOKrvLBAHY1CO1Pto/UN1ssyrDzfzauU+abp1YW9sWSMa2Z/a0ITBDrgoUGVEY5wGnOiPKUyVOegQaCnMmEdfg0mODzSoL8+Mv+1yVCzubH/7ythQHG+IfEMXnb0QxL5XVZYDA4cLcOTA9NmGgaLpsA6PDtZlllfcADp/3wwwWYdO1r0eSZkJhhscq3zCLo5LFMwINRc4FjItyENuU1NDUv80sc9+NeliSWtZTNH7VeCI2FeYxyjc2pVW59hoC/HDx9Ccxw/cSvB82s1KA1MtGllUuNYvvHC4mvl17Fob4fzpHRP6u7408D5VDMiMgZxOhqTdhjPeoRT29pLPFIPVyC5kuUe1eEcbKusREGEC62BJhFip5EiMAz8c1A7T+VdDUPzCvJn2le/VbRpa715vLBI7xEVvn3rWBo8ML9S1GERSrQWl4hVKp4gaB+gLnRK7Zd4HUE8wKBdPjS69OecZqPTM5s3AfsbPKqhtAxj+bCXU3XNpKcNdsQTfzwtbZI1K6m17JJy8Chwudi4Rg1eDHtWa1lKYxZ5STVV5VYyYTLBz5t18fzM25IsWuHYCr5RojLBp3FHK/t43PG7XFfSAa+ak8EhOBd53O1GvS2SoovZ9Z1QB8qWZeXjxys/sLK7lgcV8TWwoenOv8js1B72CFX5TNCLoAB81DGa7KlcEKpOKTD4GDc6YMszkcr1uZHrLWIPXLng+/uCu7rq41UhQ6EFtmJsmtOagcI9VvdS9zjF3hiLRMQ2x7C+mLR5dXfWoppyKTBoH6gtwCrvGXwCeLjSuk68QeyXRVPhutinchtsxYrn9lmvaEIH6vlcNcyuJXdojr+oOkaWc51sRC/noZbnoRnSPOHoD75o+mMioi4RHw7XYZ6ngepu29lpUBH8Dq+eEOEs3yDkhsQ/hQ8XcHcdbnh4LR9zC4zIZ9NIgYb4NZ8RkoXatz/bWssp2VhvxFO30NKoNp/GAX7fC0tC0etbXm42CSKj6xEMCu8dGaEBtRatNFTO01ogOeNrpl1BtVH0a7hpbEDvdjcnqUOK1E92O5cQHavhE/koc3lleuKfFbJB7ud1W6XkeANxROX4J9Wb+BWRpsJ1bpOU/jnRM31zbHotQxIbYs6P6iKcMdzFEKLW+6SNyoEHyW/9LJe0+Wq7rWCFP3xEJAtncKt/8JhM61KjnaupXptHRkedXvreQijYsZsWXB4OKxXZ1Oj4Dcj0F7t59JYlpi0qHBVzc2nX9MTvObiqmIuEKgBOuNbi9y/hzmKtZ7mC9gkoUGqY9y3TtP7iKPdSViSmyj8D5Pi52wyIVPNMLM7qj85ziI58FMl7sUMkFXcZnlo8JjjwC2bmUyjV5Eu04J9jUorQ2ke+7LrHhPnkMT86tHiC1r8Rpj2thi54M4sacE/sygs5HSPEG3tnRkmbs65iioD3QLgX3fH9M3re+Vj6ONlqIntgdJfBaus3swhyEHkz129RixjRo1FOdmMeIvotuabIRZ3om93sJafzXaVXPEUk5F9ggC9cXT4SVjK6B0rgv2QWjpap3x+Vku93+DyUY7vseJfbECcg3uIjw/Y+24b5eGZmiFj3z1V82ep8e+VXMy2iCo/IIjIF14gvMVMDvygkoTNeuMHn3VVbWypJe8Xb1FbB82cns91wiuIfZTaPCgZYEv/TykVnlZ83NZZbv+FxRgJRAxAvsLc693cL4cuN8BLW09s4yvQQm9y1u9izK2VB+N+OMRZBCUTBHkHXJSnHE8lWtiNbR3SBuApf8bAP6utU1foc4KDBnmbgnKyTaHTXsEK/GWgNDBfNJgNJ3Dv4cyyqvW4UO9PuiPC2JLxOXgclzRdKz84ssxuBwaSitIgkN+3YUW9sLYbe7PQkmjZKwRkLPNGqX9AlJL0IuGdA4j2mEjPB4PwONx3Dr3nouNG2IbVZZnH2sD2cNCEPa38TQj3OoO7S2n+V/FUprnMyt2fmAlq+ICIyCPjtZS9F+i17wb/yxnjC/lQAe8TL/ff1nFpbjefYo7Yhtw7JvtvC41hZ6CbfcTEDyobWekQy+4A+sM/3D8LN8c6ISgS3LqSSJQlz812y60+5ngC4BzcJNDJpILlxhfduIMWxWvGMctsSV+8vIBb7Mtg0a+NZQBZnsqiT0dR5r1rYzWq2WyBirtd9+cQpEzHyeALYF2ntEx1vwNPaPPO0Ve8WSkGwHMvxKdmLgntlFN+Ud0MMAskX+SoTsER3ovRjJvwl1Yes7bVB6rRTdGOeP5Xp+fewO38fnQzAvR8MNCL6tc7sBKoaWf6A2fdOjlvCSZMMQ2ilxXkDveLsSvoW2Ku2eiSC3ucxe6YIu/cvyseCteu1GjrtG4786bMLB//363ofeaj8bO6ZZSQLeHgfxm7BR/PNHGLglHbKOx21cP2jGlyxagsfoY4SHf8QeifJqcsc3nGd+WTH8gSg4EbSmUjx9+IXq4vFCWMHTCDb0cbcIGgKewoXZ/p7iEeE1YYhvoSveUYGn3oSL3oSHDOi8QesmDXdGY/mXbBHkrj5211SaSNperKK8d6JmAwxxnYLBdAO08qVua+SKY0obGcocNHp09k13h/sjAOBHvCU9sA/S67GyHbcSgYozu78KA6CYjPJw7GrgJmq4GhK/UOa8539S4N56W0soTlPqKvuMwWZuDBnRCI08L3UXXFRHfQJuztZ4Wvi57q/vzrhKJF5I0xPaH/lBxToYg250IWwANNsg/LtxnkP0oJ74XJNgDbXjQ28Y+ahaNR2M5GJWaeHB66zAbaSOEENnQxOPRYDeCyJnonbrhAjWrNVWhl1p14jQvS6Qeyqw2/uFJSWyjglKLixGDZ2FaeB40cEFYtriRmcndp+0YOwKyHQPxTkFznmSkn8L2qFMwVJswyG0hj9Zi09iFNvK22rxkZ1xz4EihFEbeFJ1raRrhLGhOQ3SdDcEPEeeVM5ztwodjDDAM7zaTT4cVjDw/xjC6FMbXBrjs6sPKJAESJTWx/fGXa4gdaemFGuc/BmlmhjGg8s8usZ6JzsC98TqOstuAWcIqFB78Tu7rsiG2fzNKkqf0HZjHmbgZ4XOhZa/2j0+GZ/QkOCaMV8BVV3GiUVQlm6kRrI0uS2J3AoUfKsq5UXDbTDi68dfT2FSYLAM6ycT9K4gst1xVQxW78bwtUd100QJaEbsTknK6eXRRzjjBtekAZzI67XEQGQ6yxxdWRJ/CvNiDQW0NZ7p7n2tnLQ5z6fAn4TpV7bJ6ja/GilPo3589acAVjtSxAGs8CTZaEh2DUZCdYXtUNLwTVhWnU4g9AtfjR9DEB3TiezR4Z+J9rYZVjXoiThE7ApSl10Ubnn4DcfFNwfhQEB1eDTEEJs0QPA+Gtk/FPRW77rF5mVIAtgPHu3nwyRbEtSAOEyLsAt6/xATRF5DzeVOI6ScFaR/retuRntrVHQEMKqlCQCGgEFAIKAQUAgoBhUBHBP4PFPkfIakNeGAAAAAASUVORK5CYII=;" parent="1" vertex="1">
          <mxGeometry x="340" y="252" width="114.59" height="34" as="geometry" />
        </mxCell>
      </root>
    </mxGraphModel>
  </diagram>
</mxfile>
